HIERARCHY
ROOT Hips
{
 OFFSET 0.000000 0.000000 0.000000
 CHANNELS 6 Xposition Yposition Zposition Yrotation Xrotation Zrotation
 JOINT Chest
 {
  OFFSET 0.000000 9.585900 0.002600
  CHANNELS 3 Yrotation Xrotation Zrotation
  JOINT Chest2
  {
   OFFSET 0.000000 9.601200 -0.005300
   CHANNELS 3 Yrotation Xrotation Zrotation
   JOINT Chest3
   {
    OFFSET 0.000000 9.561800 0.000000
    CHANNELS 3 Yrotation Xrotation Zrotation
    JOINT Chest4
    {
     OFFSET 0.000000 9.552100 0.000000
     CHANNELS 3 Yrotation Xrotation Zrotation
     JOINT Neck
     {
      OFFSET 0.000000 14.453000 0.000000
      CHANNELS 3 Yrotation Xrotation Zrotation
      JOINT Head
      {
       OFFSET 0.000000 8.936500 -0.011300
       CHANNELS 3 Yrotation Xrotation Zrotation
       End Site
       {
        OFFSET 0.000000 17.073600 -0.006000
       }
      }
     }
     JOINT RightCollar
     {
      OFFSET -2.921100 9.558500 0.000000
      CHANNELS 3 Yrotation Xrotation Zrotation
      JOINT RightShoulder
      {
       OFFSET -13.519700 0.000000 0.000000
       CHANNELS 3 Yrotation Xrotation Zrotation
       JOINT RightElbow
       {
        OFFSET 0.000000 -29.696600 0.000000
        CHANNELS 3 Yrotation Xrotation Zrotation
        JOINT RightWrist
        {
         OFFSET 0.000000 -24.004700 0.000000
         CHANNELS 3 Yrotation Xrotation Zrotation
         End Site
         {
          OFFSET 0.000000 -17.728500 0.000000
         }
        }
       }
      }
     }
     JOINT LeftCollar
     {
      OFFSET 2.921100 9.558500 0.000000
      CHANNELS 3 Yrotation Xrotation Zrotation
      JOINT LeftShoulder
      {
       OFFSET 13.519700 0.000000 0.000000
       CHANNELS 3 Yrotation Xrotation Zrotation
       JOINT LeftElbow
       {
        OFFSET 0.000000 -29.696600 0.000000
        CHANNELS 3 Yrotation Xrotation Zrotation
        JOINT LeftWrist
        {
         OFFSET 0.000000 -24.004700 0.000000
         CHANNELS 3 Yrotation Xrotation Zrotation
         End Site
         {
          OFFSET 0.000000 -17.728500 0.000000
         }
        }
       }
      }
     }
    }
   }
  }
 }
 JOINT RightHip
 {
  OFFSET -7.771700 -0.012900 -0.001300
  CHANNELS 3 Yrotation Xrotation Zrotation
  JOINT RightKnee
  {
   OFFSET 0.000000 -40.869800 0.001200
   CHANNELS 3 Yrotation Xrotation Zrotation
   JOINT RightAnkle
   {
    OFFSET 0.000000 -39.717900 0.002100
    CHANNELS 3 Yrotation Xrotation Zrotation
    JOINT RightToe
    {
     OFFSET 0.000000 -4.965400 11.033500
     CHANNELS 3 Yrotation Xrotation Zrotation
     End Site
     {
      OFFSET 0.000000 -1.423100 5.872300
     }
    }
   }
  }
 }
 JOINT LeftHip
 {
  OFFSET 7.771700 -0.012900 -0.001300
  CHANNELS 3 Yrotation Xrotation Zrotation
  JOINT LeftKnee
  {
   OFFSET 0.000000 -40.869800 0.001200
   CHANNELS 3 Yrotation Xrotation Zrotation
   JOINT LeftAnkle
   {
    OFFSET 0.000000 -39.717900 0.002100
    CHANNELS 3 Yrotation Xrotation Zrotation
    JOINT LeftToe
    {
     OFFSET 0.000000 -4.965400 11.033500
     CHANNELS 3 Yrotation Xrotation Zrotation
     End Site
     {
      OFFSET 0.000000 -1.423100 5.872300
     }
    }
   }
  }
 }
}
MOTION
Frames: 16
Frame Time: 0.008333
-16.013382 57.891675 40.897129 -152.272287 -32.899408 -2.562925 -13.012481 21.286022 -1.658636 -1.875846 3.464000 -0.054379 -3.008752 5.544214 -0.141893 -10.200672 18.136909 -1.619811 -0.966112 11.728246 -2.915890 -0.437960 -13.993517 -5.210678 4.920904 -3.844121 -0.850973 21.268740 -26.829871 -26.236334 126.101223 -74.247355 -85.531255 23.406697 -22.278944 -53.822798 -7.369365 -5.026687 -0.939933 -0.499651 -15.738205 13.270501 -149.012718 -56.612223 117.665443 -15.548572 -6.566426 21.386049 -2.278535 -36.242985 -26.283164 -2.203859 67.423225 -0.762096 4.781071 9.727705 8.073814 -0.092071 -6.092800 0.844362 -19.982122 -49.692126 -20.239219 28.986980 67.154174 27.492065 -14.196458 35.086811 0.300548 1.047511 -21.441564 -6.961243
-16.013177 57.890368 40.897474 -152.374950 -32.931469 -2.540590 -12.934377 21.298014 -1.651895 -1.862293 3.469812 -0.049036 -2.998308 5.521366 -0.147476 -10.165446 18.138369 -1.617713 -0.940097 11.772660 -2.904205 -0.227471 -13.908982 -5.233415 4.961346 -3.835255 -0.858484 21.196251 -26.818052 -26.255835 125.856612 -74.169537 -85.396164 23.387049 -22.247307 -53.737885 -7.412609 -5.013219 -0.951116 -0.819231 -16.094149 13.511970 -148.755692 -57.000154 117.307503 -15.476622 -6.553281 21.513965 -2.209058 -36.215831 -26.246569 -2.208986 67.426171 -0.760710 4.780351 9.726531 8.069997 -0.089431 -6.090250 0.844474 -19.921650 -49.649959 -20.202030 28.973995 67.160400 27.475614 -14.183085 35.057067 0.299908 1.031692 -21.412468 -6.947211
-16.012334 57.889216 40.898075 -152.421929 -32.963096 -2.544192 -12.894041 21.325739 -1.637501 -1.865458 3.459739 -0.054461 -2.982339 5.519723 -0.143815 -10.128148 18.120150 -1.619112 -0.773042 11.818782 -2.890901 -0.166665 -13.821332 -5.217909 4.941068 -3.804110 -0.845950 21.208942 -26.842887 -26.361540 125.689508 -74.168789 -85.331390 23.325302 -22.279939 -53.686253 -7.460956 -5.003554 -0.959612 -1.144734 -16.440618 13.743556 -148.513575 -57.359912 116.963316 -15.412918 -6.544443 21.632353 -2.188533 -36.184923 -26.211447 -2.215957 67.430521 -0.766627 4.780393 9.720525 8.065950 -0.090466 -6.088259 0.847466 -19.901844 -49.610079 -20.169992 28.973911 67.166633 27.469511 -14.163359 35.014129 0.322335 1.008190 -21.369446 -6.947754
-16.010451 57.888737 40.898304 -152.496911 -33.000144 -2.532619 -12.811723 21.337071 -1.615177 -1.860513 3.456495 -0.055532 -2.984829 5.533523 -0.143122 -10.098173 18.107011 -1.624328 -0.664103 11.860967 -2.872610 -0.052476 -13.741694 -5.209776 4.918019 -3.778880 -0.833005 21.197797 -26.866492 -26.438238 125.574711 -74.164169 -85.290633 23.339889 -22.235303 -53.684756 -7.544288 -5.097360 -1.008255 -1.453603 -16.677410 14.008939 -148.283266 -57.693491 116.632088 -15.359482 -6.539611 21.736694 -2.141570 -36.151086 -26.175798 -2.215980 67.435135 -0.764520 4.772728 9.716793 8.060226 -0.088278 -6.085915 0.850587 -19.854934 -49.562013 -20.135407 28.970621 67.169341 27.461245 -14.172534 34.975045 0.309862 1.003503 -21.328581 -6.929447
-16.005300 57.887381 40.900256 -152.578887 -33.021424 -2.523734 -12.777684 21.320735 -1.631896 -1.839269 3.466604 -0.047582 -2.963666 5.527583 -0.142397 -10.055081 18.125757 -1.618377 -0.585645 11.897952 -2.853679 0.087912 -13.670480 -5.205624 4.906315 -3.774273 -0.824048 21.170537 -26.871448 -26.475021 125.456730 -74.145093 -85.238631 23.358082 -22.205673 -53.718585 -7.613626 -5.168362 -1.031928 -1.766903 -16.928514 14.238644 -148.063172 -57.989929 116.321459 -15.314666 -6.535188 21.825362 -2.094915 -36.134927 -26.130129 -2.279609 67.436927 -0.819821 4.791268 9.718309 8.054969 -0.090229 -6.085168 0.851481 -19.817497 -49.526581 -20.076778 28.964532 67.172387 27.449051 -14.185425 34.931669 0.286431 0.998420 -21.286982 -6.902007
-16.002250 57.886740 40.903886 -152.631304 -33.042711 -2.509346 -12.743573 21.320256 -1.641544 -1.818188 3.468529 -0.040039 -2.956799 5.526454 -0.143554 -10.046688 18.135632 -1.618887 -0.551736 11.919888 -2.840970 0.269497 -13.596427 -5.210963 4.900550 -3.783480 -0.817507 21.151285 -26.858460 -26.478942 125.349796 -74.117370 -85.183788 23.373577 -22.194012 -53.765102 -7.675625 -5.230421 -1.044178 -2.073033 -17.178681 14.451061 -147.861463 -58.242119 116.047375 -15.274065 -6.528136 21.902914 -2.056790 -36.117791 -26.116289 -2.286532 67.441204 -0.821553 4.792990 9.718732 8.051115 -0.096789 -6.085963 0.852530 -19.781577 -49.479970 -20.029524 28.873648 67.168811 27.351405 -14.243515 34.856294 0.225725 1.034332 -21.207380 -6.865159
-15.998393 57.887567 40.906925 -152.661423 -33.069649 -2.507567 -12.721007 21.340584 -1.641604 -1.830245 3.446012 -0.058589 -2.947724 5.535357 -0.137220 -10.024776 18.156517 -1.609292 -0.447593 11.947956 -2.837188 0.371046 -13.534756 -5.201408 4.911273 -3.799405 -0.819295 21.117676 -26.861911 -26.538325 125.444927 -74.174935 -85.283598 23.419454 -22.158163 -53.843340 -7.731169 -5.302194 -1.056109 -2.373785 -17.408197 14.661024 -147.684193 -58.450265 115.818759 -15.239624 -6.525566 21.976998 -2.036251 -36.090299 -26.100889 -2.317902 67.444576 -0.846142 4.802773 9.718404 8.049961 -0.101552 -6.088375 0.852538 -19.769357 -49.438946 -19.994090 28.826150 67.164505 27.295904 -14.265967 34.806822 0.200896 1.044910 -21.145794 -6.848479
-15.993897 57.889775 40.909587 -152.662616 -33.101046 -2.521337 -12.712817 21.367478 -1.636353 -1.830708 3.449462 -0.057275 -2.938196 5.524083 -0.145117 -10.013003 18.159241 -1.615578 -0.366013 11.988528 -2.817238 0.465319 -13.478077 -5.189347 4.893368 -3.806162 -0.803146 21.077593 -26.857341 -26.638728 125.495165 -74.197261 -85.450703 23.370194 -22.232335 -53.852058 -7.805682 -5.360571 -1.045002 -2.666524 -17.615927 14.867440 -147.540043 -58.610501 115.639857 -15.214763 -6.525251 22.054406 -2.040784 -36.053121 -26.083947 -2.357248 67.445706 -0.878483 4.809669 9.716322 8.052226 -0.098653 -6.090850 0.848561 -19.786200 -49.396000 -19.955283 28.797975 67.157132 27.253907 -14.293902 34.759238 0.177747 1.046919 -21.084691 -6.830946
-15.987451 57.892257 40.912902 -152.664808 -33.127004 -2.539855 -12.668575 21.376101 -1.607503 -1.840623 3.459020 -0.057887 -2.940096 5.525679 -0.148012 -10.017980 18.160116 -1.625332 -0.342214 12.010509 -2.799828 0.602022 -13.415135 -5.187644 4.861407 -3.827446 -0.794270 21.037674 -26.829778 -26.680919 125.628065 -74.204146 -85.663299 23.356312 -22.272088 -53.888280 -7.875053 -5.418780 -1.032865 -2.947201 -17.805865 15.072366 -147.446974 -58.725970 115.516410 -15.198625 -6.511643 22.140733 -2.051225 -36.021908 -26.053108 -2.356405 67.444599 -0.881253 4.802648 9.716646 8.057607 -0.099915 -6.094627 0.845919 -19.819006 -49.361767 -19.899906 28.783770 67.148493 27.220842 -14.328032 34.729131 0.153934 1.049543 -21.038912 -6.816493
-15.979549 57.895167 40.916321 -152.680642 -33.152606 -2.556890 -12.643309 21.403394 -1.585714 -1.838281 3.446166 -0.069134 -2.940171 5.529801 -0.151951 -10.013650 18.170314 -1.626603 -0.311435 12.026507 -2.783284 0.720700 -13.362715 -5.183356 4.835330 -3.834834 -0.783867 20.997518 -26.812516 -26.705530 125.846560 -74.216255 -85.892581 23.391268 -22.266782 -53.983019 -7.906180 -5.446027 -1.018133 -3.243753 -18.013445 15.278077 -147.405246 -58.810256 115.443398 -15.186156 -6.482103 22.238697 -2.053905 -35.991101 -26.008913 -2.389398 67.439939 -0.922524 4.812981 9.719093 8.068360 -0.107662 -6.099312 0.844883 -19.845551 -49.330429 -19.840821 28.778622 67.141412 27.196857 -14.352869 34.721601 0.150395 1.048047 -21.005125 -6.816991
-15.971056 57.896885 40.922215 -152.685880 -33.163683 -2.576534 -12.638681 21.409462 -1.578227 -1.831826 3.453678 -0.061605 -2.939717 5.530220 -0.152370 -10.028216 18.162567 -1.653570 -0.205181 12.068237 -2.754504 0.765262 -13.342019 -5.170936 4.837271 -3.831832 -0.762445 20.935442 -26.794306 -26.722705 126.108074 -74.218140 -86.157115 23.424002 -22.265126 -54.083291 -7.952847 -5.506307 -0.991855 -3.499687 -18.166013 15.483865 -147.397520 -58.875200 115.407644 -15.173051 -6.446628 22.351400 -2.066549 -35.976380 -25.970129 -2.383148 67.435337 -0.924930 4.812577 9.721311 8.074645 -0.108406 -6.102211 0.843968 -19.900645 -49.322158 -19.762362 28.751445 67.136300 27.139102 -14.381821 34.743189 0.138496 1.045789 -21.003317 -6.813822
-15.960769 57.897503 40.929182 -152.687539 -33.164727 -2.606887 -12.627733 21.408292 -1.552347 -1.832966 3.455235 -0.062870 -2.941472 5.532396 -0.154310 -10.033869 18.165098 -1.661739 -0.158878 12.081535 -2.742661 0.795040 -13.329208 -5.166152 4.833541 -3.832477 -0.755868 20.909322 -26.784154 -26.724746 126.220238 -74.192735 -86.332320 23.421855 -22.292165 -54.155158 -8.000947 -5.568643 -0.972931 -3.750449 -18.310531 15.687375 -147.425930 -58.931716 115.406115 -15.154106 -6.411248 22.481706 -2.089466 -35.970823 -25.911779 -2.320401 67.428108 -0.884421 4.786683 9.722370 8.086918 -0.112041 -6.102879 0.843893 -19.989883 -49.328199 -19.650200 28.713431 67.141272 27.059140 -14.399737 34.765071 0.121420 1.041024 -21.001541 -6.804753
-15.949001 57.897174 40.936396 -152.731884 -33.162497 -2.624421 -12.610616 21.404114 -1.538125 -1.829341 3.455317 -0.063525 -2.947494 5.528771 -0.163735 -10.000346 18.180061 -1.654560 -0.132762 12.086801 -2.733829 0.836254 -13.315170 -5.162845 4.754395 -3.844635 -0.757282 20.946946 -26.770196 -26.710514 126.403097 -74.171753 -86.637511 23.386367 -22.341534 -54.165339 -8.041078 -5.617883 -0.951298 -3.999531 -18.459971 15.889022 -147.506353 -58.993979 115.441283 -15.126784 -6.378184 22.629317 -2.063677 -35.965625 -25.847741 -2.347862 67.418797 -0.911837 4.779081 9.726858 8.095759 -0.110806 -6.101015 0.845262 -20.051794 -49.336307 -19.531085 28.687555 67.147627 26.996913 -14.401258 34.799431 0.111501 1.032850 -21.018405 -6.798872
-15.932454 57.897012 40.940174 -152.733413 -33.165692 -2.704051 -12.590523 21.415053 -1.468003 -1.847148 3.445735 -0.076558 -2.937437 5.538552 -0.159422 -9.979346 18.192359 -1.647486 -0.116126 12.090224 -2.731841 0.924531 -13.298113 -5.164478 4.732154 -3.847281 -0.756348 20.777710 -26.735293 -26.711786 127.101651 -74.190568 -87.307208 23.385922 -22.374293 -54.230450 -8.091004 -5.664700 -0.930739 -4.233607 -18.604441 16.089070 -147.638854 -59.075017 115.509621 -15.093930 -6.348551 22.789434 -2.117771 -35.947445 -25.733993 -2.378988 67.402690 -0.935458 4.786886 9.729151 8.092981 -0.100053 -6.099660 0.843691 -20.186806 -49.326196 -19.364453 28.664887 67.153147 26.939885 -14.373379 34.879879 0.134275 0.997214 -21.082307 -6.807856
-15.924146 57.897463 40.944802 -152.758712 -33.188276 -2.728109 -12.590557 21.413183 -1.469160 -1.820771 3.469774 -0.060483 -2.951090 5.529865 -0.168079 -9.978360 18.204648 -1.651364 -0.071239 12.074323 -2.724999 1.046538 -13.283411 -5.163317 4.726722 -3.845323 -0.752571 20.635609 -26.707750 -26.706328 127.700929 -74.209519 -87.846755 23.385214 -22.400572 -54.335483 -8.122927 -5.702145 -0.906171 -4.459663 -18.742712 16.291906 -147.816474 -59.176961 115.610486 -15.055372 -6.325476 22.949195 -2.063720 -35.897930 -25.704094 -2.407813 67.395473 -0.931106 4.777196 9.726271 8.107135 -0.104024 -6.096402 0.843429 -20.232580 -49.307889 -19.284399 28.655701 67.158438 26.906133 -14.372652 34.906167 0.146562 0.970234 -21.101270 -6.812528
-15.919649 57.898333 40.948734 -152.778511 -33.223805 -2.739610 -12.589435 21.431156 -1.472669 -1.826515 3.465856 -0.065669 -2.950792 5.535272 -0.168265 -10.021648 18.180835 -1.682956 0.004255 12.097145 -2.706805 1.143422 -13.280918 -5.166830 4.733084 -3.808951 -0.737661 20.545705 -26.681404 -26.694201 128.318307 -74.252458 -88.410577 23.392022 -22.416475 -54.424433 -8.106749 -5.698719 -0.876318 -4.680812 -18.871019 16.500364 -148.035249 -59.291628 115.743643 -15.012557 -6.311552 23.099792 -2.030013 -35.848423 -25.681657 -2.438231 67.392520 -0.951261 4.774017 9.723724 8.121912 -0.104210 -6.095426 0.842177 -20.236149 -49.272349 -19.256739 28.633175 67.157316 26.878241 -14.382629 34.923765 0.168465 0.962182 -21.112646 -6.836113
